<svg xmlns="http://www.w3.org/2000/svg" width="163" height="56" viewBox="0 0 163 56" fill="none"><g clip-path="url(#clip0_9108_4551)"><path d="M42.0343 23.2973V20.2788L41.4733 20.2541C40.6205 20.216 39.7834 20.4157 38.9799 20.8443C38.65 21.0216 38.3471 21.2259 38.0733 21.4593V20.5257H35.1311V35.8918H38.2955V26.814C38.2955 26.0083 38.4279 25.3709 38.6837 24.9243C38.7959 24.7358 39.0585 24.4082 39.6734 23.9054C40.1245 23.5374 40.7102 23.3444 41.4665 23.3152L42.0298 23.2928L42.0343 23.2973Z" fill="white"></path><path d="M54.896 22.6396C53.4148 21.0776 51.5857 20.2495 49.4605 20.1777C47.2611 20.1081 45.3356 20.8801 43.7467 22.4802C42.1623 24.0736 41.3588 26.0104 41.3588 28.2344C41.3588 30.4584 42.1039 32.2426 43.5739 33.7933C45.0483 35.3486 46.8751 36.1632 48.9981 36.2171C49.0924 36.2193 49.1844 36.2216 49.2787 36.2216C51.3636 36.2216 53.1948 35.4451 54.7232 33.9168C56.3165 32.3234 57.1245 30.4046 57.1245 28.2097C57.1245 26.0149 56.3749 24.197 54.896 22.6396ZM54.0589 28.0728C54.0903 29.4934 53.6145 30.6986 52.6091 31.7601C51.6845 32.7363 50.614 33.2121 49.3393 33.2121C49.2473 33.2121 49.1552 33.2098 49.0498 33.2031C47.7391 33.1582 46.6574 32.6443 45.7463 31.6321C44.8261 30.6133 44.3953 29.4575 44.4244 28.0908C44.4401 26.7173 44.9137 25.5795 45.8764 24.6077C46.819 23.6562 47.9254 23.1916 49.2607 23.1916H49.328C50.6207 23.1916 51.6957 23.6562 52.6113 24.6122C53.5404 25.5817 54.014 26.7151 54.0589 28.0706V28.0728Z" fill="white"></path><path d="M71.2002 30.5391L71.0274 30.8129C70.0332 32.3905 68.5677 33.1738 66.5524 33.2029H66.4896C65.1184 33.2029 63.9604 32.7227 62.9505 31.7352C61.9271 30.7343 61.4311 29.5696 61.4311 28.1737C61.4311 26.7777 61.9652 25.6085 63.0671 24.5829C64.095 23.6156 65.2104 23.1444 66.4806 23.1444H66.5951C68.5902 23.1915 70.0265 24.0241 70.9915 25.6915L71.1598 25.9855H74.5418L73.9022 24.5335C73.3255 23.27 72.3605 22.213 71.0364 21.3894C69.6809 20.5545 68.1997 20.1304 66.6355 20.1304H66.5367C64.2992 20.1663 62.3512 20.9809 60.7444 22.5519C59.1285 24.1318 58.3296 26.0551 58.3655 28.2679C58.3835 30.465 59.2071 32.3569 60.814 33.8919C62.4118 35.4202 64.3396 36.2035 66.5412 36.2214H66.6601C69.9412 36.2214 72.4076 34.7447 73.9853 31.8295L74.5935 30.5391H71.2002Z" fill="#F27123"></path><path d="M82.9532 20.1801C80.7538 20.1105 78.8283 20.8825 77.2394 22.4827C75.655 24.0738 74.8538 26.0106 74.8538 28.2368C74.8538 30.4631 75.5989 32.245 77.0688 33.7958C78.5433 35.351 80.3701 36.1657 82.4931 36.2195C82.5874 36.2218 82.6794 36.224 82.7736 36.224C84.8585 36.224 86.6898 35.4475 88.2181 33.9192C89.8115 32.3258 90.6194 30.407 90.6194 28.2122C90.6194 26.0173 89.8699 24.1995 88.3909 22.642C86.9097 21.08 85.0807 20.2519 82.9532 20.1801ZM87.5516 28.073C87.583 29.4936 87.1072 30.6988 86.1018 31.7603C85.175 32.7365 84.1067 33.2123 82.832 33.2123C82.74 33.2123 82.648 33.21 82.5425 33.2033C81.2319 33.1584 80.1524 32.6445 79.239 31.6323C78.3189 30.6112 77.8857 29.4555 77.9172 28.091C77.9306 26.7197 78.4064 25.5797 79.3692 24.6079C80.3117 23.6564 81.4181 23.1918 82.7534 23.1918H82.8208C84.1134 23.1918 85.1884 23.6564 86.1041 24.6124C87.0332 25.5797 87.5067 26.713 87.5516 28.0708V28.073Z" fill="white"></path><path d="M98.6964 20.2046C96.7327 20.2046 95.0742 20.8801 93.7703 22.2109C92.4687 23.5395 91.8089 25.2227 91.8089 27.2155V35.8962H94.8745V27.018C94.8745 25.9767 95.247 25.1037 96.0145 24.3474C96.7843 23.5889 97.6618 23.2208 98.6964 23.2208C99.731 23.2208 100.584 23.5889 101.354 24.3474C102.121 25.1037 102.494 25.9767 102.494 27.018V35.8962H105.559V27.2155C105.559 25.2227 104.899 23.5373 103.6 22.2109C102.296 20.8801 100.647 20.2046 98.6986 20.2046H98.6964Z" fill="white"></path><path d="M113.715 20.2046C111.751 20.2046 110.093 20.8801 108.789 22.2109C107.487 23.5395 106.827 25.2227 106.827 27.2155V35.8962H109.893V27.018C109.893 25.9767 110.265 25.1037 111.033 24.3474C111.803 23.5889 112.68 23.2208 113.715 23.2208C114.749 23.2208 115.602 23.5889 116.372 24.3474C117.139 25.1037 117.512 25.9767 117.512 27.018V35.8962H120.578V27.2155C120.578 25.2227 119.918 23.5373 118.618 22.2109C117.314 20.8801 115.665 20.2046 113.717 20.2046H113.715Z" fill="white"></path><path d="M130.255 20.1304C127.983 20.0047 125.986 20.7789 124.319 22.4284C122.653 24.0757 121.839 26.0663 121.89 28.3464C121.926 30.5054 122.757 32.3905 124.359 33.9503C125.925 35.4741 127.755 36.2461 129.792 36.2461H129.929C131.588 36.2281 133.116 35.7299 134.471 34.7672C135.827 33.8021 136.805 32.4848 137.375 30.8465L137.647 30.0678H134.433L134.274 30.4044C133.408 32.2424 132.005 33.1513 129.992 33.1805H129.922C128.645 33.1805 127.566 32.781 126.626 31.9552C125.836 31.2639 125.337 30.4381 125.111 29.4461H137.757V27.8393C137.757 25.9339 137.025 24.1902 135.576 22.6506C134.083 21.1044 132.295 20.256 130.255 20.1326V20.1304ZM134.543 26.5286H125.178C125.474 25.6377 125.984 24.9061 126.72 24.3069C127.622 23.573 128.643 23.2184 129.844 23.2184H129.916C131.148 23.2341 132.176 23.5999 133.058 24.3405C133.762 24.9307 134.252 25.6511 134.543 26.5286Z" fill="white"></path><path d="M151.438 30.8131C150.444 32.3907 148.978 33.174 146.963 33.2031H146.9C145.529 33.2031 144.371 32.7229 143.361 31.7354C142.337 30.7345 141.841 29.5698 141.841 28.1739C141.841 26.7779 142.376 25.6087 143.48 24.5831C144.505 23.6158 145.623 23.1446 146.891 23.1446H147.005C148.998 23.1917 150.437 24.0243 151.402 25.6917L151.57 25.9857H154.954L154.315 24.5337C153.738 23.2702 152.773 22.2132 151.449 21.3896C150.091 20.5547 148.612 20.1328 147.048 20.1328H146.949C144.712 20.1687 142.764 20.9834 141.157 22.5543C139.541 24.1343 138.742 26.0576 138.776 28.2704C138.794 30.4674 139.617 32.3593 141.224 33.8944C142.822 35.4227 144.75 36.2059 146.952 36.2239H147.071C150.352 36.2239 152.818 34.7472 154.396 31.8319L155.004 30.5415H151.611L151.438 30.8153V30.8131Z" fill="white"></path><path d="M162.111 23.443V20.5031H158.824V15.5479H155.758V31.199C155.758 33.4769 156.759 36.1924 161.523 36.1924H162.109V33.45H161.523C159.656 33.45 158.821 32.6555 158.821 30.8736V23.4408H162.109L162.111 23.443Z" fill="white"></path><path d="M21.7219 33.6495C21.1339 33.6495 20.5482 33.4251 20.1016 32.9785C19.2061 32.083 19.2061 30.631 20.1016 29.7356C20.9588 28.8783 21.4301 27.7382 21.4301 26.5264C21.4301 25.3145 20.9588 24.1744 20.1016 23.3171C19.2443 22.4598 18.1042 21.9863 16.8923 21.9863C15.6804 21.9863 14.5404 22.4598 13.6808 23.3171C12.8235 24.1744 12.3523 25.3145 12.3523 26.5264C12.3523 27.7382 12.8235 28.8783 13.6808 29.7356C14.5763 30.631 14.5763 32.083 13.6808 32.9785C12.7854 33.8739 11.3334 33.8739 10.4379 32.9785C8.71438 31.2549 7.76508 28.9636 7.76508 26.5264C7.76508 24.0891 8.71438 21.7978 10.4379 20.0742C12.1615 18.3507 14.4529 17.4014 16.8901 17.4014C19.3273 17.4014 21.6186 18.3507 23.3422 20.0742C25.0658 21.7978 26.0151 24.0891 26.0151 26.5264C26.0151 28.9636 25.0658 31.2549 23.3422 32.9785C22.8934 33.4251 22.3076 33.6495 21.7219 33.6495Z" fill="white"></path><path d="M16.8923 42.53C8.06805 42.53 0.888794 35.3507 0.888794 26.5265C0.888794 17.7022 8.06805 10.5229 16.8923 10.5229C18.1581 10.5229 19.1859 11.5486 19.1859 12.8165C19.1859 14.0845 18.1581 15.1101 16.8923 15.1101C10.5973 15.1101 5.47373 20.2314 5.47373 26.5287C5.47373 32.826 10.595 37.9473 16.8923 37.9473C23.1896 37.9473 28.3109 32.826 28.3109 26.5287C28.3109 25.263 29.3365 24.2351 30.6023 24.2351C31.868 24.2351 32.8958 25.2607 32.8958 26.5287C32.8958 35.353 25.7166 42.5322 16.8923 42.5322V42.53Z" fill="#F27123"></path><path d="M16.8923 42.5211C12.7944 42.5211 8.69644 40.9614 5.57698 37.8419C4.68153 36.9465 4.68153 35.4945 5.57698 34.599C6.47242 33.7036 7.92443 33.7036 8.81988 34.599C13.2724 39.0516 20.5167 39.0516 24.967 34.599C29.4196 30.1465 29.4196 22.9044 24.967 18.4519C20.5145 13.9993 13.2724 13.9993 8.81988 18.4519C7.92443 19.3473 6.47242 19.3473 5.57698 18.4519C4.68153 17.5564 4.68153 16.1044 5.57698 15.209C11.8159 8.97005 21.971 8.97005 28.2099 15.209C34.4489 21.4479 34.4511 31.6008 28.2099 37.8419C25.0905 40.9614 20.9903 42.5211 16.8946 42.5211H16.8923Z" fill="#F27123"></path><path d="M3.18239 51.9062C1.91665 51.9062 0.888794 50.8806 0.888794 49.6126V25.6017C0.888794 24.336 1.91665 23.3081 3.18239 23.3081C4.44813 23.3081 5.47598 24.336 5.47598 25.6017V49.6126C5.47598 50.8783 4.44813 51.9062 3.18239 51.9062Z" fill="#F27123"></path><path d="M39.8709 55.9998C29.0515 55.9998 19.0961 49.6666 14.5022 39.8661L15.0341 39.617C19.5293 49.2133 29.2782 55.4141 39.8709 55.4141C52.6068 55.4141 63.5698 46.7761 66.5322 34.4082L67.1022 34.5451C65.6614 40.5574 62.1941 46.0063 57.3354 49.8866C52.3308 53.8858 46.2916 55.9998 39.8709 55.9998Z" fill="#F27123"></path><path d="M66.4357 21.1989C63.3387 9.06216 52.4138 0.585741 39.8709 0.585741C30.9905 0.585741 22.6218 4.91933 17.4848 12.1749L17.0068 11.836C22.2538 4.4256 30.802 0 39.8709 0C52.6809 0 63.8391 8.6582 67.0035 21.0553L66.4357 21.2011V21.1989Z" fill="#F27123"></path></g><defs><clipPath id="clip0_9108_4551"><rect width="161.222" height="56" fill="white" transform="translate(0.888794)"></rect></clipPath></defs></svg>